<?xml version="1.0" encoding="utf-8"?>
<!-- Generator: Adobe Illustrator 19.0.0, SVG Export Plug-In . SVG Version: 6.00 Build 0)  -->
<svg version="1.1" id="Layer_1" xmlns="http://www.w3.org/2000/svg" xmlns:xlink="http://www.w3.org/1999/xlink" x="0px" y="0px"
	 viewBox="0 0 212.4 448.1" style="enable-background:new 0 0 212.4 448.1;" xml:space="preserve">
<g id="XMLID_15_">
	<path id="XMLID_16_" d="M89.6,262.4V423c0,9-1.7,15.5-5.2,19.3c-3.5,3.8-8,5.8-13.7,5.8c-5.5,0-10-1.9-13.5-5.8
		C53.8,438.5,52,432,52,423V262.4c0-9,1.7-15.5,5.2-19.3c3.5-3.8,8-5.8,13.7-5.8c5.5,0,10,1.9,13.5,5.8
		C87.9,247,89.6,253.4,89.6,262.4z M160.4,262.4V423c0,9-1.7,15.5-5.1,19.3c-3.4,3.8-7.9,5.8-13.6,5.8c-5.6,0-10.2-1.9-13.7-5.8
		c-3.5-3.8-5.2-10.3-5.2-19.3V262.4c0-9,1.7-15.5,5.2-19.3c3.5-3.8,8-5.8,13.7-5.8c5.6,0,10.1,1.9,13.6,5.8
		C158.7,247,160.4,253.4,160.4,262.4z"/>
	<path id="XMLID_19_" d="M106.1,78.1L38.7,199.8c-3.4,6.1-6.5,10.2-9.2,12.2c-2.7,2-6.1,3-10.3,3c-5.3,0-9.8-1.9-13.6-5.7
		c-3.8-3.8-5.7-8.2-5.7-13.4c0-3.2,1.8-8.1,5.3-14.7L106.1,0l100.8,181.3c3.7,6.6,5.5,11.5,5.5,14.7c0,5.1-1.9,9.6-5.7,13.4
		c-3.8,3.8-8.4,5.7-13.7,5.7c-4.2,0-7.6-1-10.3-3c-2.7-2-5.7-6.1-9.2-12.2L106.1,78.1z"/>
</g>
</svg>
